<svg id="Capa_1" enable-background="new 0 0 512 512" height="512" viewBox="0 0 512 512" width="512" xmlns="http://www.w3.org/2000/svg"><g><circle cx="330.989" cy="75" r="15"/><path d="m98.989 336.813c-15.074 30.697-23 64.75-23 99.187v61c0 8.284 6.716 15 15 15s15-6.716 15-15c0-24.935 20.607-46 45-46h30c90.976 0 165-74.027 165-165v-91c0-41.355 33.645-75 75-75h60c8.284 0 15-6.716 15-15s-6.716-15-15-15l-65.339.009c-6.939 0-11.551-5.794-13.043-11.527-12.337-47.386-56.558-80.99-107.243-78.334-56.466 2.958-99.377 52.948-99.375 109.946 0 7.635-1.234 15.119-3.612 22.221l-127.923-127.921c-3.676-3.677-8.994-5.187-14.053-3.992-5.06 1.194-9.14 4.923-10.784 9.855l-8.329 24.987c-34.458 103.378-10.088 220.487 67.701 301.569zm82 84.187h-30c-16.416 0-32.055 5.385-45 15.341v-.341c0-27.347 5.771-54.4 16.774-79.189 25.947 16.47 57.123 21.442 85.152 14.662 6.451 14.232 15.4 27.333 26.301 38.582-16.341 7.038-34.336 10.945-53.227 10.945zm135-135c0 44.396-21.545 83.851-54.724 108.471-10.741-9.578-19.492-21.324-25.55-34.316 5.513-3.29 10.733-7.115 15.579-11.478 35.662-32.114 43.863-82.472 24.984-123.317 12.167-7.471 25.587-12.292 39.711-14.29zm-90-175.906c-.001-42.056 31.824-77.938 70.943-79.987 35.485-1.862 67.722 21.664 76.642 55.933 1.207 4.634 3.028 8.912 5.341 12.769-32.833 14.417-56.928 45.162-61.949 81.901-20.366 2.074-39.702 8.681-57.038 19.474-1.464-1.668-2.978-3.297-4.553-4.872l-40.132-40.132c7.049-13.908 10.746-29.274 10.746-45.086zm-166.24-65.363.653-1.962c10.434 10.433 165.959 165.957 173.758 173.757 29.656 29.657 29.866 80.313-2.942 109.858-29.313 26.394-77.194 23.138-106.725-6.393-71.3-71.301-96.714-179.347-64.744-275.26z"/></g></svg>